<svg width="23" height="22" viewBox="0 0 23 22" fill="none" xmlns="http://www.w3.org/2000/svg">
<g clip-path="url(#clip0)">
<path d="M1.96429 11.1964C1.96429 10.654 1.52457 10.2143 0.982143 10.2143C0.43972 10.2143 0 10.654 0 11.1964V21.0179C0 21.5603 0.43972 22 0.982143 22C1.52457 22 1.96429 21.5603 1.96429 21.0179V11.1964Z" fill="#828081"/>
<path d="M22.393 11.1964C22.393 10.654 21.9533 10.2143 21.4109 10.2143C20.8684 10.2143 20.4287 10.654 20.4287 11.1964V21.0179C20.4287 21.5603 20.8684 22 21.4109 22C21.9533 22 22.393 21.5603 22.393 21.0179V11.1964Z" fill="#828081"/>
<path d="M21.4107 20.0357H0.982143C0.43972 20.0357 0 20.4754 0 21.0178C0 21.5603 0.43972 22 0.982143 22H21.4107C21.9531 22 22.3929 21.5603 22.3929 21.0178C22.3929 20.4754 21.9531 20.0357 21.4107 20.0357Z" fill="#828081"/>
<path d="M7.19037 10.9088C6.80682 10.5252 6.18496 10.5252 5.80141 10.9088C5.41786 11.2923 5.41786 11.9142 5.80141 12.2978L10.3193 16.8156C10.7029 17.1992 11.3247 17.1992 11.7083 16.8156C12.0918 16.4321 12.0918 15.8102 11.7083 15.4267L7.19037 10.9088Z" fill="#828081"/>
<path d="M10.516 15.4267C10.1324 15.8103 10.1324 16.4321 10.516 16.8157C10.8995 17.1992 11.5214 17.1992 11.9049 16.8157L16.4228 12.2978C16.8064 11.9142 16.8064 11.2924 16.4228 10.9088C16.0393 10.5253 15.4174 10.5253 15.0339 10.9088L10.516 15.4267Z" fill="#828081"/>
<path d="M12.1786 0.982143C12.1786 0.43972 11.7389 0 11.1965 0C10.6541 0 10.2144 0.43972 10.2144 0.982143V14.7321C10.2144 15.2746 10.6541 15.7143 11.1965 15.7143C11.7389 15.7143 12.1786 15.2746 12.1786 14.7321V0.982143Z" fill="#828081"/>
</g>
<defs>
<clipPath id="clip0">
<rect width="22.3929" height="22" fill="white"/>
</clipPath>
</defs>
</svg>
