<svg width="187" height="108" viewBox="0 0 187 108" fill="none" xmlns="http://www.w3.org/2000/svg">
<path d="M158.058 1.08668C156.572 1.66864 153.097 3.04595 150.337 4.15167C135.492 10.0101 135.782 9.89369 135.28 10.495C134.315 11.659 134.373 12.4931 135.666 15.7521C136.149 17.0324 136.535 18.0799 136.496 18.1187C136.458 18.1381 135.84 18.3515 135.087 18.5649C134.354 18.7783 132.558 19.3214 131.13 19.7676C129.701 20.2138 127.868 20.7569 127.038 20.9703L125.57 21.3777L123.37 20.466C122.173 19.9616 120.938 19.4184 120.609 19.2826C119.471 18.7589 111.884 15.7327 109.317 14.7628C102.696 12.2603 99.1634 11.3098 97.4454 11.5232C95.1869 11.8142 90.2646 13.754 87.7165 15.3835L86.8865 15.9267L85.6896 15.3447C83.1609 14.1032 82.0413 13.851 79.3002 13.8704C77.0031 13.8704 76.6364 13.9286 74.8604 14.5106C72.4282 15.3253 70.0346 16.6444 65.4018 19.7676C63.3942 21.1255 61.0778 22.5804 60.2864 23.0266L58.8193 23.8413L57.8734 23.4728C56.4257 22.9102 53.5302 21.5523 53.5302 21.4165C53.5302 21.3583 54.1865 20.0004 54.9779 18.4097C56.1168 16.1207 56.4257 15.3253 56.4257 14.6658C56.4257 12.8811 56.7732 13.0945 43.531 6.42132C30.7908 0.000355334 30.7136 -0.0190434 29.4395 0.640512C28.4165 1.16428 29.15 -0.21303 15.9658 26.1304L8.66909 40.7376L10.7732 42.9103L12.8965 45.0829L10.7345 42.9685L8.59187 40.854L4.28721 49.467C1.25658 55.5582 0.0018591 58.274 0.0018591 58.759C-0.0367477 60.0005 0.523051 60.7958 1.9515 61.533C5.17517 63.2401 11.7383 66.5185 11.9121 66.5185C12.0279 66.5185 13.0317 65.6261 14.1513 64.5204L16.1781 62.5417L14.1706 64.6174L12.163 66.6736L12.8193 67.0228C16.4097 68.9239 25.1349 73.1722 25.6368 73.2498C26.0808 73.3274 26.5633 73.211 27.1617 72.9394C27.9725 72.532 28.1269 72.3381 29.2079 70.1848C29.8449 68.9239 30.4433 67.8764 30.5012 67.8764C30.6364 67.8764 35.6938 70.534 37.7979 71.6979C38.8403 72.2799 39.1299 72.5514 39.0912 72.8424C39.0526 73.0364 38.9754 73.9094 38.9175 74.7823C38.6666 78.468 40.5969 81.3391 44.8437 83.6475C45.5386 84.0355 46.4651 84.4234 46.8898 84.5398C47.662 84.7532 47.7006 84.792 47.8357 85.665C48.1252 87.6242 48.6657 88.6136 50.4223 90.3788C52.2369 92.2023 53.9935 93.2304 56.0782 93.696C57.0241 93.89 57.1978 94.0064 57.4102 94.5302C57.7769 95.4613 58.7228 96.761 59.5721 97.537C59.9968 97.9249 60.4601 98.3517 60.6145 98.4875C61.1936 99.0695 63.1626 100.117 64.398 100.505C65.4211 100.815 66.0581 100.874 67.1584 100.815C68.3938 100.738 68.5868 100.757 68.6834 101.068C68.8764 101.688 71.3472 103.977 72.6405 104.734C74.2041 105.665 75.6519 106.092 77.1768 106.092C79.6863 106.092 81.2885 105.18 83.1416 102.716L84.2419 101.242L84.7631 101.572C85.0526 101.766 86.346 102.678 87.6586 103.609C90.6699 105.743 92.0212 106.499 94.0673 107.159C97.3103 108.206 100.611 107.857 103.526 106.15C105.051 105.258 107.908 102.445 108.545 101.223L109.008 100.33L111.325 100.233C114.046 100.117 116.208 99.4962 118.023 98.2741C119.432 97.343 121.748 94.9763 122.501 93.7348C123.042 92.8231 123.158 92.7261 123.602 92.8619C124.509 93.1141 127.713 92.9783 128.91 92.6291C130.126 92.2605 131.767 91.4458 132.713 90.7086C134.315 89.4671 134.836 88.9821 135.55 88.1674C136.419 87.1587 137.635 85.18 137.809 84.4816C137.905 84.0549 138.021 84.0161 139.874 83.9385C142.191 83.8221 143.831 83.2401 145.839 81.7852C149.951 78.856 151.842 74.3749 150.935 69.8162C150.742 68.9045 150.665 68.1479 150.761 68.1091C154.275 66.7706 155.375 66.3827 155.491 66.4409C155.568 66.4991 155.8 67.0228 156.031 67.6436C157.73 72.2605 158.174 72.9006 159.873 73.0752C160.78 73.1528 161.513 72.8812 174.138 67.8376L176.126 67.0422L175.586 66.4409L175.045 65.8395L175.663 66.4021L176.281 66.9646L177.786 66.3827C186.395 63.0461 186.434 63.0267 186.878 61.5136C187.168 60.5631 187.129 60.4467 184.6 54.1033C183.519 51.3875 181.859 47.1586 180.894 44.7337L179.137 40.3108L177.863 41.5329L176.589 42.7551L177.805 41.4942C178.462 40.7958 179.002 40.1556 179.002 40.0974C179.002 40.0199 177.574 36.3535 175.837 31.95C174.099 27.5465 171.744 21.5717 170.625 18.7007C169.486 15.8103 168.405 13.0751 168.192 12.5901C167.98 12.1051 166.957 9.52511 165.895 6.84809C164.853 4.17107 163.849 1.70744 163.675 1.39706C163.347 0.737505 161.996 -0.0190434 161.224 0.000355334C160.973 0.000355334 159.544 0.485322 158.058 1.08668ZM161.803 11.9111C162.903 14.6852 164.235 18.0411 164.756 19.3796C165.297 20.7182 166.011 22.5416 166.359 23.4534C166.706 24.3651 167.42 26.1886 167.961 27.5271C168.501 28.8656 170.374 33.6183 172.15 38.0994C173.925 42.5805 176.493 49.079 177.863 52.5514C179.234 56.0238 180.354 58.953 180.354 59.05C180.354 59.1664 179.987 59.3991 179.523 59.5737C179.08 59.7483 177.246 60.4855 175.431 61.2032C173.636 61.9016 172.111 62.5223 172.072 62.5611C172.014 62.6193 172.323 63.0073 172.748 63.4729L173.501 64.2876L172.632 63.4535L171.744 62.6387L169.64 63.4923C164.525 65.5291 161.803 66.5573 161.726 66.4991C161.687 66.4603 161.127 65.0442 160.471 63.3565L159.274 60.2915L158.657 60.8346L158.058 61.3778L158.599 60.7764C158.888 60.4661 159.12 60.1363 159.12 60.0587C159.12 59.9811 158.29 57.8084 157.267 55.209C156.263 52.629 154.815 48.9432 154.062 47.0228L152.692 43.531L150.742 41.4942L148.792 39.4573L150.588 41.2032C151.553 42.1537 152.364 42.8909 152.364 42.8133C152.364 42.7357 152.113 42.0567 151.804 41.2614C151.495 40.4854 150.395 37.7114 149.372 35.0926C148.348 32.4738 146.959 28.9432 146.283 27.2361C145.607 25.529 144.391 22.4252 143.6 20.3496C142.789 18.2739 141.901 16.0625 141.65 15.4417C141.129 14.2196 141.052 13.754 141.38 13.754C141.554 13.754 147.345 11.5038 156.224 7.95382C158.077 7.21667 159.66 6.6735 159.718 6.7317C159.776 6.80929 160.722 9.13714 161.803 11.9111ZM49.6695 16.1013C49.6695 16.2177 46.8898 21.9015 43.4731 28.7492L37.2767 41.2032L39.7669 38.7783L42.2377 36.3535L39.5931 39.0693L36.9679 41.7851L30.8487 54.1033C27.4899 60.8734 24.6909 66.4603 24.6523 66.4991C24.6137 66.5379 20.5407 64.5398 15.6183 62.0762C8.14789 58.3128 6.66153 57.5175 6.77735 57.2459C6.95108 56.8385 12.2595 46.2274 17.5293 35.7715C19.672 31.5038 23.803 23.2788 26.6792 17.498L31.9297 6.96448L40.8092 11.4262C45.6737 13.8898 49.6695 15.9849 49.6695 16.1013ZM102.175 18.2933C103.603 18.7783 105.611 19.4766 106.615 19.8646C107.618 20.2526 108.892 20.7182 109.414 20.9121C110.803 21.4359 119.007 24.7725 121.961 26.0334C123.351 26.6154 124.74 27.1585 125.069 27.2167C125.493 27.3137 126.323 27.1585 127.868 26.6735C130.184 25.9558 132.655 25.2186 136.322 24.1129C137.539 23.7443 138.6 23.5116 138.677 23.5892C138.755 23.6862 139.121 24.5203 139.488 25.4902C140.376 27.7793 143.735 36.3341 146.38 43.046C147.518 45.9752 149.14 50.0878 149.951 52.1634C150.761 54.2391 151.862 57.0519 152.402 58.4098C152.923 59.7677 153.309 60.951 153.252 61.048C153.194 61.1644 152.904 61.3002 152.615 61.3778C152.306 61.436 150.897 61.9404 149.449 62.4641C148.02 62.9879 146.727 63.4147 146.573 63.4147C146.437 63.4147 142.326 59.4185 137.461 54.5301C127.675 44.7143 128.987 45.7813 123.408 43.143C121.98 42.4641 119.683 41.3778 118.293 40.7182C115.842 39.5349 113.332 38.3322 110.186 36.8385C109.336 36.4311 105.784 34.7434 102.271 33.0557C96.4223 30.2623 95.8239 30.0295 95.0325 30.1071C94.3569 30.1653 93.5075 30.5921 91.3648 31.8918C89.8206 32.8423 88.3921 33.7347 88.1991 33.9093C87.8902 34.1808 85.8827 38.1382 84.8017 40.66C84.6087 41.1062 84.1261 41.8045 83.7593 42.2313C83.3732 42.6387 83.103 43.0266 83.1609 43.0654C83.1995 43.1236 83.0837 43.1624 82.91 43.1818C82.7362 43.2012 82.2343 43.2982 81.829 43.4146C80.9024 43.6474 80.1882 43.531 78.8755 42.9103C76.6364 41.8627 75.5361 39.3797 76.3854 37.3234C76.5398 36.9549 76.617 36.6445 76.5398 36.6445C76.4626 36.6445 76.5012 36.5669 76.617 36.4893C76.7522 36.4117 77.4278 35.1314 78.142 33.6377C78.8369 32.144 79.9951 29.8355 80.7094 28.5164C81.9062 26.2662 82.0606 26.0722 83.4505 25.0247C87.5428 21.9015 93.1987 18.6619 96.3644 17.595C97.8508 17.11 99.009 17.2458 102.175 18.2933ZM80.9024 19.6706C80.941 19.7094 80.2654 20.272 79.3967 20.9315C78.2771 21.7851 77.5822 22.5028 77.061 23.337C76.1152 24.8113 71.2507 34.6658 70.826 35.9267C70.44 37.0906 70.4207 40.0392 70.8067 41.4748C71.9649 45.8783 76.4433 49.2536 81.134 49.2536C82.4274 49.2536 84.3577 48.7299 85.4773 48.0897C87.8516 46.7124 88.894 45.3739 90.9016 41.0286L92.2335 38.1382L93.6813 37.1876C94.7236 36.5087 95.2641 36.2759 95.6116 36.3341C95.8818 36.3923 97.4454 37.0713 99.0862 37.8666C104.472 40.466 106.228 41.2808 106.228 41.145C106.228 41.0674 106.306 41.1062 106.383 41.2226C106.499 41.4166 109.143 42.7357 111.73 43.919C112.27 44.1518 113.95 44.9665 115.494 45.7037C117.038 46.4408 119.895 47.8181 121.864 48.7299L125.435 50.4175L135.357 60.3885L145.26 70.34L145.356 71.5815C145.414 72.2605 145.376 73.1528 145.26 73.5602C145.067 74.2391 145.086 74.2779 145.376 74.0451C145.916 73.6184 143.716 76.1402 142.982 76.7804C141.92 77.7309 140.859 78.1771 139.643 78.2159C137.326 78.2741 137.751 78.5844 130.744 71.6785C120.108 61.1838 119.413 60.5437 118.602 60.3109C117.231 59.9423 115.996 60.5049 115.32 61.8046C115.031 62.3865 115.05 63.7056 115.378 64.3458C115.61 64.792 119.374 68.5359 130.223 79.1276C132.481 81.3197 132.693 81.5912 132.597 82.0956C132.269 83.7057 129.894 86.1305 127.906 86.8871C126.748 87.3138 125.088 87.3914 123.968 87.0617C123.389 86.8677 121.806 85.374 115.938 79.4768C111.923 75.4225 108.41 71.9889 108.12 71.8337C107.387 71.4457 106.093 71.4845 105.379 71.9307C104.066 72.7454 103.661 74.6271 104.51 75.8686C104.761 76.2178 107.908 79.4962 111.518 83.1625C115.147 86.8289 118.139 89.8551 118.177 89.8939C118.351 90.0879 116.556 92.2023 115.533 93.0171C114.046 94.181 112.888 94.5108 110.437 94.4138L108.506 94.3556L103.14 88.8851C98.7001 84.3652 97.6191 83.3759 96.9821 83.1819C94.8588 82.5418 92.8126 84.6756 93.5268 86.7513C93.7006 87.2363 95.322 89.0209 98.8546 92.6097L103.912 97.7697L103.642 98.3129C103.198 99.147 101.055 101.048 99.9549 101.552C98.2948 102.328 95.9204 102.076 93.8743 100.893C93.3917 100.621 91.7316 99.4768 90.168 98.3905L87.3304 96.373L87.6007 95.4613C88.0061 94.181 87.9674 92.0083 87.5235 90.5922C86.6934 87.9152 84.5507 85.762 81.9062 84.9278L80.8445 84.598L80.7094 83.0461C80.5163 81.0675 79.9951 79.6514 78.8949 78.1577C76.424 74.7823 71.5596 73.7348 67.9112 75.8104L66.946 76.373L66.4056 75.6164C64.6103 73.1334 61.0392 71.7561 58.0665 72.4157C57.333 72.5708 56.5415 72.7648 56.3292 72.823C56.0203 72.92 55.7887 72.7454 55.2675 72.0277C54.1093 70.4758 51.04 68.3807 49.1097 67.7988C47.7585 67.4108 45.9439 67.4108 44.3804 67.7988L43.145 68.1091L38.4928 65.5873C35.9255 64.1906 33.667 62.9879 33.4547 62.9297C33.2423 62.8521 33.0686 62.7357 33.0686 62.6193C33.0686 62.4059 50.5961 27.1003 50.8277 26.8675C50.9821 26.7123 53.2792 27.5465 53.8197 27.9345C54.1093 28.1478 57.7769 29.5834 58.4139 29.7385C58.7035 29.8161 59.2826 29.7773 59.688 29.661C60.9427 29.3312 64.2629 27.3913 68.7799 24.3651C73.9918 20.8927 76.2889 19.7482 78.5281 19.5154C79.1072 19.4766 80.7866 19.5736 80.9024 19.6706ZM49.0711 74.1615C49.8239 74.6465 50.6154 75.3255 50.8277 75.6746C52.0052 77.6145 50.2679 79.7096 48.1638 78.9336C47.3917 78.662 45.693 77.4981 45.1911 76.8968C44.1873 75.7328 44.3997 74.0645 45.6351 73.4438C46.6003 72.9394 47.5075 73.1334 49.0711 74.1615ZM61.599 78.7978C62.1974 79.4186 62.2939 79.632 62.3711 80.6407C62.4677 81.9404 62.487 81.8822 60.5373 84.5786C59.8617 85.5098 59.3212 86.3245 59.3212 86.4021C59.3212 86.4797 59.051 86.8871 58.7035 87.3138C58.1244 88.051 58.0472 88.0898 57.2171 88.0122C56.638 87.954 56.001 87.7018 55.4026 87.275C54.4761 86.6543 53.3371 85.3158 53.3371 84.8502C53.3371 84.7338 53.8004 83.9773 54.3602 83.2013C54.9007 82.406 55.8466 81.0675 56.4257 80.2333C57.7383 78.3517 58.4139 77.9055 59.8617 78.0219C60.7304 78.0801 61.0006 78.1965 61.599 78.7978ZM73.5671 80.8735C74.7446 81.5912 75.2658 83.1237 74.7832 84.4234C74.5902 84.9278 68.6061 93.3662 67.6217 94.4914C67.2742 94.8987 66.8495 95.2285 66.6758 95.2285C66.5021 95.2285 65.8458 94.9763 65.2087 94.6853C63.8961 94.0452 62.6028 92.7455 62.6028 92.0471C62.6028 91.6398 63.8382 89.7387 66.0388 86.6931C66.3862 86.2081 67.4479 84.7532 68.4131 83.4535C69.359 82.1538 70.3627 80.9511 70.6716 80.7959C71.4244 80.3691 72.8143 80.4079 73.5671 80.8735ZM81.0954 90.9026C82.6011 92.0471 82.6204 93.5796 81.192 95.6165C80.6901 96.3342 79.7442 97.6727 79.1265 98.5457C78.4895 99.438 77.8911 100.233 77.7753 100.33C77.4471 100.563 76.3082 100.292 75.4009 99.7484C74.3006 99.1082 73.2197 97.8279 73.2197 97.1878C73.239 96.858 73.9918 95.6165 75.2851 93.793C76.9452 91.4264 77.4664 90.8638 78.1227 90.5534C79.1265 90.0879 80.1882 90.2043 81.0954 90.9026Z" fill="white"/>
<path d="M165.239 49.6222C164.177 50.3205 163.752 51.1159 163.752 52.4544C163.752 53.3273 164.177 54.6852 164.447 54.6852C164.544 54.6852 164.872 54.4524 165.181 54.1421L165.779 53.6183L165.219 54.2391C164.582 54.9568 164.66 55.1702 165.76 55.6746C166.841 56.1595 167.555 56.1401 168.713 55.5388C169.524 55.1508 169.814 54.8598 170.2 54.0451C170.47 53.5019 170.702 52.7842 170.702 52.4738C170.702 51.7948 170.103 50.3593 169.736 50.1265C169.601 50.0295 169.08 50.3787 168.424 51.0189L167.324 52.0664L168.347 50.9801L169.37 49.9131L168.964 49.5446C168.675 49.2924 168.192 49.1566 167.362 49.0984C166.281 49.0402 166.069 49.0984 165.239 49.6222Z" fill="white"/>
<path d="M18.7841 49.4086C18.4173 49.622 18.1278 49.9324 18.1278 50.0876C18.1471 50.2428 18.012 50.3592 17.8575 50.3398C17.6645 50.3204 17.4136 50.6695 17.1819 51.2127C16.6414 52.4736 16.8538 53.6957 17.7417 54.6851C18.8999 55.9654 20.2319 56.3533 21.5445 55.7714C22.8764 55.17 22.915 55.267 20.5214 52.8034L18.3015 50.5143L20.5793 52.7452L22.8571 54.976L23.2239 54.4911C24.2856 53.1138 23.8416 50.7083 22.2973 49.5444C21.5445 48.9818 19.6721 48.9236 18.7841 49.4086Z" fill="white"/>
</svg>
