<svg width="188" height="120" viewBox="0 0 188 120" fill="none" xmlns="http://www.w3.org/2000/svg">
<rect x="16.4785" width="154.635" height="5.62686" rx="2.81343" fill="white"/>
<rect x="1.50171" y="99.4078" width="184.705" height="5.62686" rx="2.81343" fill="white"/>
<rect x="12.3599" y="113.287" width="162.872" height="5.62686" rx="2.81343" fill="white"/>
<rect x="16.4785" y="105.035" width="105.035" height="5.61628" rx="2.80814" transform="rotate(-90 16.4785 105.035)" fill="white"/>
<rect x="165.497" y="105.035" width="105.035" height="5.61628" rx="2.80814" transform="rotate(-90 165.497 105.035)" fill="white"/>
<rect width="5.62953" height="23.2988" rx="2.81477" transform="matrix(0.782006 -0.623271 0.623863 0.781533 0 101.791)" fill="white"/>
<rect width="5.62953" height="23.2988" rx="2.81477" transform="matrix(0.781974 0.62331 -0.623903 0.781502 183.098 98.2825)" fill="white"/>
<rect x="56" y="50" width="10" height="29" fill="white"/>
<rect x="78" y="36" width="10" height="43" fill="white"/>
<rect x="100" y="43" width="10" height="36" fill="white"/>
<rect x="122" y="27" width="10" height="52" fill="white"/>
</svg>
