<svg width="276" height="96" viewBox="0 0 276 96" fill="none" xmlns="http://www.w3.org/2000/svg">
<path d="M72.6748 18.7503V64.5012" stroke="white"/>
<path d="M78.6748 26.2505V65.2512" stroke="white"/>
<path d="M84.6748 32.2506V65.2512" stroke="white"/>
<path d="M90.6748 37.5007V65.2512" stroke="white"/>
<path d="M96.6748 42.0008V65.2512" stroke="white"/>
<path d="M102.675 45.7508V65.2512" stroke="white"/>
<path d="M108.675 49.5009V65.2512" stroke="white"/>
<path d="M114.675 51.7509V65.2512" stroke="white"/>
<path d="M120.675 54.001V65.2512" stroke="white"/>
<path d="M126.675 54.751V65.2512" stroke="white"/>
<path d="M132.675 55.501V65.2512" stroke="white"/>
<path d="M138.675 56.251V65.2512" stroke="white"/>
<path d="M144.675 55.501V64.5012" stroke="white"/>
<path d="M150.675 54.751V64.5012" stroke="white"/>
<path d="M156.675 53.251V64.5012" stroke="white"/>
<path d="M162.675 51.0009V64.5012" stroke="white"/>
<path d="M168.675 48.7509V64.5012" stroke="white"/>
<path d="M174.675 45.7508V64.5012" stroke="white"/>
<path d="M180.675 41.2508V64.5012" stroke="white"/>
<path d="M186.675 36.7507V64.5012" stroke="white"/>
<path d="M192.675 30.7506V64.5012" stroke="white"/>
<path d="M197.925 25.5005V64.5012" stroke="white"/>
<path d="M203.925 17.2503V64.5012" stroke="white"/>
<path d="M230.344 18.0001V64.5051" stroke="white"/>
<path d="M236.438 25.4997V70.5051" stroke="white"/>
<path d="M242.625 32.2468V69.755" stroke="white"/>
<path d="M249 38.2507L249 68.2512" stroke="white"/>
<path d="M255 42.7508L255 65.2512" stroke="white"/>
<path d="M261 46.5008L261 64.1261" stroke="white"/>
<path d="M267 49.5009L267 66.7512" stroke="white"/>
<path d="M273 51.7509L273 65.2512" stroke="white"/>
<path d="M224.25 33.7506L225 62.2511" stroke="white"/>
<path d="M274.875 52.5009C251.625 44.6258 235.5 27.0005 224.25 9.00015" stroke="white"/>
<path d="M46.4414 15.7502V64.5027" stroke="white"/>
<path d="M39.9375 23.9997V69.0051" stroke="white"/>
<path d="M33.75 30.7468V68.255" stroke="white"/>
<path d="M27.375 36.7507L27.375 66.7512" stroke="white"/>
<path d="M21.375 41.2507L21.75 65.2512" stroke="white"/>
<path d="M15.5625 44.9991V65.2529" stroke="white"/>
<path d="M9.375 48.0009L9.375 65.2512" stroke="white"/>
<path d="M3.375 50.2509L3.75 65.2512" stroke="white"/>
<path d="M1.5 51.0009C24.75 43.1258 40.875 25.5005 52.125 7.50014" stroke="white"/>
<path d="M224.25 3.00005L225 50.2509" stroke="white"/>
<path d="M209.925 24.7505V65.2512" stroke="white"/>
<path d="M65.9248 8.25015V65.2512" stroke="white"/>
<path d="M65.9248 8.25015C104.925 72.7513 172.8 70.8763 209.925 8.25015" stroke="white"/>
<path d="M51 4.31836C51 7.54342 50.475 9.86846 49.65 11.0685C48.45 12.8685 48.45 12.8685 49.8 11.8185C51.15 10.6935 51.15 11.1435 50.7 27.8688C50.4 37.319 50.175 49.3942 50.175 54.7193V64.3194H25.125H0L0.675 66.6445C1.05 67.8445 1.125 69.4195 0.9 70.0195C0.6 70.9196 4.05 71.0696 25.35 71.0696H50.175V83.4448C50.175 93.945 50.325 95.82 51.3 95.82C51.9 95.82 52.425 95.145 52.425 94.395C52.425 92.5199 53.85 92.0699 59.25 92.0699C63.3 92.0699 63.675 92.2199 64.125 93.945C64.35 94.995 65.025 95.82 65.625 95.82C66.45 95.82 66.675 93.495 66.675 83.4448V71.0696H137.925H209.175V83.4448C209.175 93.645 209.325 95.82 210.225 95.82C210.825 95.82 211.425 95.07 211.575 94.095C211.8 92.5949 212.175 92.4449 217.05 92.4449C221.775 92.4449 222.375 92.5949 223.05 94.095C223.425 95.07 224.175 95.82 224.625 95.82C225.3 95.82 225.525 92.82 225.525 85.4698C225.525 79.8447 225.525 74.2946 225.6 73.0946L225.675 71.0696H250.275H274.875V67.6945L274.95 64.3194H250.275H225.675V62.2944C225.675 61.2444 225.45 49.1692 225.225 35.5189C224.775 11.8185 224.85 10.8435 226.125 11.8935C227.4 12.8685 227.4 12.8685 226.2 11.0685C225.375 9.86846 224.85 7.54342 224.85 4.31836C224.775 1.61832 224.55 0.343291 224.4 1.46831L224.1 3.56835H217.35H210.675L210.6 1.46831C210.525 -2.05675 209.4 1.91832 209.325 6.04339C209.25 7.99343 209.025 9.94346 208.8 10.3185C208.5 10.7685 208.575 11.0685 208.95 11.0685C209.25 11.0685 209.475 23.0687 209.325 37.694L209.175 64.3194H137.925H66.675L66.6 40.844C66.45 9.41846 66.225 0.643297 65.625 0.0432847C65.4 -0.181715 65.175 0.493291 65.175 1.54332V3.56835H58.5H51.75L51.45 1.46831C51.3 0.343291 51.075 1.61832 51 4.31836ZM63.75 8.14343C64.125 8.74344 64.425 11.2935 64.425 13.8435V18.5686H58.35H52.275L52.575 13.6185C52.95 7.46842 54.15 6.26839 59.475 6.79341C61.425 6.94341 63.375 7.61842 63.75 8.14343ZM221.55 7.61842C222.6 8.36844 223.05 9.86846 223.275 13.6185L223.575 18.5686H217.5H211.425V13.8435C211.425 8.96844 211.8 7.84343 213.675 7.09341C215.775 6.26839 220.125 6.5684 221.55 7.61842ZM63.45 22.6187C63.75 22.9187 64.125 25.4687 64.275 28.3938L64.575 33.5689H58.425H52.2L52.65 28.5438C53.1 22.3937 54.225 21.2687 59.4 21.7937C61.35 21.9437 63.225 22.3187 63.45 22.6187ZM221.475 22.5437C222.45 23.2937 222.825 24.7187 222.9 28.3188L223.05 33.1939L217.125 33.4189L211.275 33.6439L211.575 28.3188C211.725 24.7187 212.175 22.7687 212.925 22.3187C214.575 21.2687 219.9 21.4187 221.475 22.5437ZM62.775 38.219C63.3 38.744 63.675 41.144 63.675 43.7691V48.4192H59.775C53.475 48.4192 53.175 48.2692 53.175 43.9941C53.175 38.444 54 37.319 58.275 37.319C60.3 37.319 62.25 37.694 62.775 38.219ZM221.925 38.744C222.975 40.844 222.9 47.5941 221.775 47.9691C221.25 48.1942 218.85 48.3442 216.525 48.4192L212.175 48.4942V44.0691C212.175 37.619 212.4 37.319 217.125 37.319C220.275 37.319 221.25 37.619 221.925 38.744ZM61.8 52.7692C62.925 53.5942 63.375 55.0943 63.675 58.7693C63.9 61.4694 63.975 63.7944 63.75 64.0194C63.6 64.1694 61.05 64.3194 58.2 64.3194H53.025L53.325 59.0693C53.55 54.9443 53.925 53.5942 55.05 52.7692C57 51.2692 59.925 51.2692 61.8 52.7692ZM220.725 52.6942C221.775 53.5192 222.225 55.0193 222.525 59.0693L222.9 64.3194H217.125H211.425V61.8444C211.5 57.9443 212.775 53.5942 214.125 52.5442C215.85 51.2692 218.925 51.3442 220.725 52.6942Z" fill="white"/>
</svg>
